<?xml version="1.0" standalone="no"?><svg xmlns:xlink="http://www.w3.org/1999/xlink" xmlns="http://www.w3.org/2000/svg" viewBox="0 0 1000 1166.685484174476" preserveAspectRatio="xMaxYMax slice"><g transform="scale(1.7106825281150673)"><rect x="0" y="0" width="584.5714285714286" height="682" fill="#ffffff"/><circle cx="48.714999999999996" cy="48.714999999999996" r="9.745" fill="#E58840"/><circle cx="146.145" cy="48.714999999999996" r="9.745" fill="#E58840"/><circle cx="243.57500000000002" cy="48.714999999999996" r="9.745" fill="#E58840"/><circle cx="341.005" cy="48.714999999999996" r="9.745" fill="#E58840"/><circle cx="438.435" cy="48.714999999999996" r="9.745" fill="#ffb433"/><circle cx="535.855" cy="48.714999999999996" r="9.745" fill="#ffb433"/><circle cx="48.714999999999996" cy="146.145" r="9.745" fill="#ffb433"/><circle cx="146.15" cy="146.15" r="15.09" fill="#E58840"/><circle cx="243.57" cy="146.14" r="20.43" fill="#ffb433"/><circle cx="341.005" cy="146.145" r="23.105" fill="#E58840"/><circle cx="438.43" cy="146.14" r="20.43" fill="#E58840"/><circle cx="535.86" cy="146.15" r="15.09" fill="#E58840"/><circle cx="48.714999999999996" cy="243.57500000000002" r="9.745" fill="#ffb433"/><circle cx="146.14" cy="243.57" r="20.43" fill="#ffb433"/><circle cx="243.57" cy="243.57" r="31.12" fill="#E58840"/><circle cx="340.995" cy="243.57500000000002" r="36.465" fill="#E58840"/><circle cx="438.43" cy="243.57" r="31.12" fill="#ffb433"/><circle cx="535.8499999999999" cy="243.57" r="20.43" fill="#ffb433"/><circle cx="48.714999999999996" cy="341.005" r="9.745" fill="#E58840"/><circle cx="146.14" cy="341" r="25.33" fill="#E58840"/><circle cx="243.57" cy="341" r="40.92" fill="#ffb433"/><circle cx="341.005" cy="341.005" r="48.715" fill="#E58840"/><circle cx="438.43" cy="341" r="40.92" fill="#ffb433"/><circle cx="535.86" cy="341" r="25.33" fill="#ffb433"/><circle cx="48.714999999999996" cy="438.435" r="9.745" fill="#E58840"/><circle cx="146.14" cy="438.43" r="25.33" fill="#ffb433"/><circle cx="243.57" cy="438.43" r="40.92" fill="#ffb433"/><circle cx="341.005" cy="438.42499999999995" r="48.715" fill="#E58840"/><circle cx="438.43" cy="438.43" r="40.92" fill="#ffb433"/><circle cx="535.86" cy="438.43" r="25.33" fill="#ffb433"/><circle cx="48.714999999999996" cy="535.855" r="9.745" fill="#E58840"/><circle cx="146.14" cy="535.8499999999999" r="20.43" fill="#E58840"/><circle cx="243.57" cy="535.86" r="31.12" fill="#ffb433"/><circle cx="340.995" cy="535.855" r="36.465" fill="#E58840"/><circle cx="438.43" cy="535.86" r="31.12" fill="#ffb433"/><circle cx="535.8499999999999" cy="535.8499999999999" r="20.43" fill="#ffb433"/><circle cx="48.714999999999996" cy="633.285" r="9.745" fill="#ffb433"/><circle cx="146.15" cy="633.2900000000001" r="15.09" fill="#E58840"/><circle cx="243.57" cy="633.28" r="20.43" fill="#E58840"/><circle cx="341.005" cy="633.285" r="23.105" fill="#ffb433"/><circle cx="438.43" cy="633.28" r="20.43" fill="#ffb433"/><circle cx="535.86" cy="633.2900000000001" r="15.09" fill="#E58840"/></g></svg>